<?xml version="1.0" encoding="utf-8"?>
<!-- Generator: Adobe Illustrator 15.0.2, SVG Export Plug-In . SVG Version: 6.00 Build 0)  -->
<!DOCTYPE svg PUBLIC "-//W3C//DTD SVG 1.1//EN" "http://www.w3.org/Graphics/SVG/1.1/DTD/svg11.dtd">
<svg version="1.1" id="Layer_6" xmlns="http://www.w3.org/2000/svg" xmlns:xlink="http://www.w3.org/1999/xlink" x="0px" y="0px"
	 width="768px" height="1024px" viewBox="0 0 768 1024" enable-background="new 0 0 768 1024" xml:space="preserve">
<rect fill="#C6AA2B" width="768" height="1024"/>
<path opacity="0.2" fill="#FFFFFF" enable-background="new    " d="M768,843.329c-0.787-0.11-1.576-0.218-2.373-0.313
	c0.006-0.291,0.045-0.573,0.045-0.864c0-29.675-26.9-53.73-60.096-53.73c-7.494,0-14.642,1.281-21.254,3.521
	c-12.677-32.189-46.967-55.269-87.308-55.269c-38.994,0-72.332,21.572-85.963,52.086c-2.164-0.211-4.358-0.338-6.588-0.338
	c-33.191,0-60.1,24.058-60.1,53.73c0,1.998,0.141,3.961,0.379,5.901c-19.613,6.865-32.703,19.045-32.703,32.969
	c0,21.468,31.02,38.869,69.289,38.869c1.211,0,2.396-0.065,3.594-0.102c7.539,18.877,26.229,32.264,48.146,32.264
	c4.506,0,8.852-0.627,13.021-1.682c14.068,15.328,38.18,25.447,65.582,25.447c31.74,0,59.068-13.578,71.479-33.113
	c2.343,0.244,4.712,0.404,7.128,0.404c20.87,0,39.274-9.402,50.241-23.722c3.466,0.297,6.996,0.502,10.615,0.502
	c5.817,0,11.464-0.406,16.863-1.165v-75.396H768z"/>
<path opacity="0.2" fill="#FFFFFF" enable-background="new    " d="M637.986,219.881c0.008-0.359,0.055-0.707,0.055-1.066
	c0-36.699-33.266-66.449-74.32-66.449c-9.266,0-18.104,1.586-26.285,4.352C521.76,116.909,479.354,88.37,429.467,88.37
	c-48.227,0-89.453,26.68-106.309,64.414c-2.676-0.262-5.392-0.418-8.148-0.418c-41.047,0-74.324,29.75-74.324,66.449
	c0,2.469,0.176,4.898,0.469,7.297c-24.254,8.492-40.445,23.555-40.445,40.773c0,26.547,38.363,48.066,85.691,48.066
	c1.496,0,2.965-0.078,4.445-0.125c9.324,23.344,32.434,39.902,59.539,39.902c5.574,0,10.949-0.777,16.105-2.082
	c17.397,18.957,47.215,31.473,81.104,31.473c39.254,0,73.048-16.793,88.396-40.949c2.895,0.301,5.828,0.496,8.815,0.496
	c25.81,0,48.57-11.625,62.13-29.332c4.288,0.367,8.655,0.617,13.129,0.617c47.328,0,85.69-21.52,85.69-48.066
	C705.756,243.787,676.697,224.506,637.986,219.881z"/>
<path fill="#FFFFFF" d="M155.012,689.826c-2.522-2.295-5.331-1.485-6.242,1.801l-15.543,56.195
	c-0.911,3.286,1.133,6.178,4.543,6.178h8.782c3.41,0,5.211,2.406,4.005,5.595l-15.761,41.519c-1.206,3.188,0.568,6.144,3.943,6.625
	l9.425,1.32c3.375,0.481,5.012,3.418,3.637,6.537l-16.181,36.697c-1.375,3.119,0.268,6.017,3.65,6.439l20.764,2.595
	c3.383,0.424,5.009,3.312,3.609,6.423l-26.95,59.989c-1.399,3.107,0.245,5.779,3.652,5.934l125.046,5.644
	c3.407,0.152,5.169-2.316,3.916-5.488l-29.544-74.752c-1.254-3.171,0.51-5.657,3.917-5.527l7.759,0.3
	c3.408,0.13,4.703-2.118,2.878-4.998l-29.53-46.617c-1.825-2.882-0.645-5.237,2.623-5.237c3.269,0,4.252-2.221,2.188-4.936
	l-28.658-37.664c-2.064-2.715-0.968-5.063,2.439-5.225l9.829-0.455c3.407-0.159,4.131-2.167,1.608-4.461L155.012,689.826z"/>
<path fill="#FFFFFF" d="M280.507,754.829c-2.441-2.221-5.16-1.438-6.041,1.743l-15.041,54.416c-0.883,3.18,1.096,6.012,4.396,6.012
	h8.499c3.301,0,5.043,2.295,3.876,5.381l-15.252,40.162c-1.167,3.087,0.55,5.938,3.815,6.402l9.121,1.273
	c3.266,0.466,4.85,3.307,3.52,6.325l-15.659,35.512c-1.33,3.02,0.259,5.822,3.533,6.231l20.093,2.51
	c3.274,0.41,4.848,3.207,3.494,6.216l-26.082,58.056c-1.354,3.008,0.238,5.593,3.535,5.74l121.012,5.461
	c3.298,0.148,5.003-2.24,3.79-5.312l-28.591-72.34c-1.214-3.069,0.493-5.477,3.791-5.351l7.509,0.29
	c3.298,0.126,4.552-2.051,2.784-4.837l-28.577-45.113c-1.768-2.787-0.624-5.068,2.538-5.068s4.114-2.148,2.116-4.775l-27.733-36.448
	c-1.998-2.627-0.937-4.9,2.36-5.057l9.513-0.439c3.297-0.154,3.998-2.098,1.557-4.317L280.507,754.829z"/>
<path fill="#FFFFFF" d="M417.458,784.859c-1.627-1.48-3.439-0.958-4.027,1.162l-10.026,36.123c-0.588,2.12,0.729,3.854,2.931,3.854
	H412c2.2,0,3.362,1.684,2.584,3.74l-10.168,26.852c-0.778,2.059,0.366,3.996,2.544,4.308l6.08,0.868
	c2.178,0.312,3.233,2.214,2.347,4.227l-10.438,23.68c-0.888,2.013,0.173,3.884,2.354,4.156l13.396,1.675
	c2.183,0.273,3.23,2.139,2.329,4.146l-17.389,38.702c-0.901,2.007,0.158,3.729,2.356,3.828l80.675,3.642
	c2.198,0.099,3.335-1.494,2.526-3.541l-19.062-48.228c-0.809-2.046,0.329-3.649,2.527-3.565l5.006,0.192
	c2.198,0.084,3.034-1.366,1.856-3.225l-19.053-30.076c-1.178-1.857-0.416-3.379,1.692-3.379s2.743-1.433,1.411-3.184l-18.489-24.301
	c-1.332-1.751-0.624-3.267,1.574-3.369l6.341-0.295c2.198-0.103,2.665-1.396,1.038-2.878L417.458,784.859z"/>
<polygon fill="#2B1A45" points="768,895.756 561.38,868.5 354.02,844.5 0,828.493 0,1024 768,1024 "/>
<polygon fill="#37346B" points="768,924.556 561.38,897.3 354.02,873.3 0,857.294 0,1024 768,1024 "/>
</svg>
