<?xml version="1.0" encoding="utf-8"?>
<!-- Generator: Adobe Illustrator 16.0.0, SVG Export Plug-In . SVG Version: 6.00 Build 0)  -->
<!DOCTYPE svg PUBLIC "-//W3C//DTD SVG 1.0//EN" "http://www.w3.org/TR/2001/REC-SVG-20010904/DTD/svg10.dtd">
<svg version="1.0" id="Layer_6" xmlns="http://www.w3.org/2000/svg" xmlns:xlink="http://www.w3.org/1999/xlink" x="0px" y="0px"
	 width="768px" height="1024px" viewBox="0 0 768 1024" enable-background="new 0 0 768 1024" xml:space="preserve">
<rect fill="#C6AA2B" width="768" height="1024"/>
<path opacity="0.2" fill="#FFFFFF" d="M768,843.329c-0.787-0.11-1.576-0.218-2.373-0.313c0.006-0.291,0.045-0.574,0.045-0.865
	c0-29.674-26.9-53.73-60.096-53.73c-7.494,0-14.641,1.281-21.254,3.52c-12.676-32.189-46.967-55.268-87.307-55.268
	c-38.994,0-72.332,21.572-85.963,52.086c-2.164-0.211-4.359-0.338-6.588-0.338c-33.191,0-60.1,24.057-60.1,53.73
	c0,1.998,0.141,3.961,0.379,5.902c-19.613,6.865-32.703,19.045-32.703,32.969c0,21.467,31.02,38.869,69.289,38.869
	c1.211,0,2.396-0.066,3.594-0.102c7.539,18.877,26.229,32.264,48.146,32.264c4.506,0,8.852-0.627,13.021-1.682
	c14.068,15.328,38.18,25.447,65.582,25.447c31.74,0,59.068-13.578,71.479-33.113c2.342,0.244,4.711,0.404,7.127,0.404
	c20.871,0,39.275-9.402,50.242-23.721c3.465,0.297,6.996,0.502,10.615,0.502c5.817,0,11.464-0.407,16.863-1.165V843.329z"/>
<path opacity="0.2" fill="#FFFFFF" d="M637.986,219.881c0.008-0.359,0.055-0.707,0.055-1.066c0-36.699-33.266-66.449-74.32-66.449
	c-9.266,0-18.105,1.586-26.285,4.352c-15.676-39.809-58.082-68.348-107.969-68.348c-48.227,0-89.453,26.68-106.309,64.414
	c-2.676-0.262-5.391-0.418-8.148-0.418c-41.047,0-74.324,29.75-74.324,66.449c0,2.469,0.176,4.898,0.469,7.297
	c-24.254,8.492-40.445,23.555-40.445,40.773c0,26.547,38.363,48.066,85.691,48.066c1.496,0,2.965-0.078,4.445-0.125
	c9.324,23.344,32.434,39.902,59.539,39.902c5.574,0,10.949-0.777,16.105-2.082c17.398,18.957,47.215,31.473,81.105,31.473
	c39.254,0,73.047-16.793,88.395-40.949c2.895,0.301,5.828,0.496,8.816,0.496c25.809,0,48.57-11.625,62.129-29.332
	c4.289,0.367,8.656,0.617,13.129,0.617c47.328,0,85.691-21.52,85.691-48.066C705.756,243.787,676.697,224.506,637.986,219.881z"/>
<path fill="#FFFFFF" d="M155.012,689.826c-2.522-2.295-5.331-1.485-6.242,1.801l-15.543,56.195
	c-0.911,3.286,1.133,6.178,4.543,6.178h8.782c3.41,0,5.211,2.406,4.005,5.595l-15.761,41.518c-1.206,3.189,0.568,6.144,3.943,6.625
	l9.425,1.321c3.375,0.481,5.012,3.418,3.637,6.537l-16.181,36.697c-1.375,3.119,0.268,6.017,3.65,6.439l20.764,2.595
	c3.383,0.424,5.009,3.313,3.609,6.423l-26.95,59.989c-1.399,3.108,0.245,5.78,3.652,5.934l125.046,5.643
	c3.407,0.153,5.169-2.316,3.916-5.488l-29.544-74.752c-1.254-3.171,0.51-5.657,3.917-5.527l7.759,0.3
	c3.408,0.13,4.703-2.119,2.878-4.998l-29.53-46.618c-1.825-2.881-0.645-5.237,2.623-5.237c3.269,0,4.252-2.221,2.188-4.935
	l-28.658-37.665c-2.064-2.714-0.968-5.063,2.439-5.224l9.829-0.455c3.407-0.159,4.131-2.167,1.608-4.461L155.012,689.826z"/>
<path fill="#FFFFFF" d="M280.507,754.829c-2.441-2.221-5.16-1.438-6.041,1.743l-15.041,54.416c-0.883,3.18,1.096,6.012,4.396,6.012
	h8.499c3.301,0,5.043,2.295,3.876,5.381l-15.252,40.162c-1.167,3.087,0.55,5.937,3.815,6.402l9.121,1.274
	c3.266,0.466,4.85,3.306,3.52,6.325l-15.659,35.512c-1.33,3.019,0.259,5.822,3.533,6.231l20.093,2.51
	c3.274,0.41,4.848,3.207,3.494,6.216l-26.082,58.055c-1.354,3.008,0.238,5.593,3.535,5.741l121.012,5.461
	c3.298,0.148,5.003-2.241,3.79-5.312l-28.591-72.34c-1.213-3.069,0.494-5.476,3.791-5.35l7.509,0.29
	c3.298,0.126,4.552-2.051,2.784-4.837l-28.577-45.114c-1.767-2.787-0.624-5.068,2.538-5.068c3.163,0,4.115-2.148,2.117-4.775
	l-27.734-36.449c-1.998-2.627-0.936-4.9,2.361-5.056l9.512-0.44c3.297-0.154,3.998-2.097,1.557-4.317L280.507,754.829z"/>
<path fill="#FFFFFF" d="M417.458,784.859c-1.627-1.48-3.439-0.958-4.027,1.162l-10.027,36.124c-0.588,2.12,0.73,3.854,2.931,3.854
	H412c2.2,0,3.362,1.684,2.584,3.74l-10.168,26.852c-0.778,2.058,0.366,3.996,2.544,4.307l6.08,0.869
	c2.178,0.311,3.233,2.213,2.347,4.226l-10.439,23.68c-0.887,2.013,0.173,3.884,2.355,4.156l13.396,1.675
	c2.183,0.273,3.231,2.139,2.329,4.145l-17.388,38.703c-0.902,2.006,0.158,3.729,2.356,3.828l80.675,3.641
	c2.198,0.099,3.335-1.494,2.526-3.541l-19.061-48.227c-0.809-2.046,0.329-3.65,2.527-3.566l5.006,0.193
	c2.198,0.084,3.034-1.367,1.856-3.225l-19.052-30.076c-1.178-1.858-0.416-3.379,1.692-3.379s2.743-1.433,1.411-3.184l-18.489-24.3
	c-1.332-1.751-0.624-3.267,1.574-3.37l6.341-0.294c2.198-0.103,2.665-1.397,1.038-2.878L417.458,784.859z"/>
<polygon fill="#CC1427" points="768,293.864 757.988,287.413 768,287.121 768,245.252 755.079,245.63 768,237.238 768,187.337 
	682.289,243 261.641,243 284.222,234.789 282.672,224.714 264.847,227.039 271.047,213.863 275.696,204.563 264.071,203.789 
	227.972,243 0,243 0,423.136 366.513,328.563 471,335.393 471,356.464 481.073,357.238 485.723,351.039 502.771,361.889 
	506.646,349.488 495.222,336.976 601.266,343.907 682.459,288.533 768,343.648 "/>
<polygon fill="#B31255" points="768,625.589 768,443 715.822,443 683.516,389.423 651.04,394.174 673.894,421.784 663.395,422.685 
	663.131,434.104 682.754,435.152 689.922,443 100.965,443 0,377.557 0,427.591 27.692,445.591 0,444.787 0,486.683 24.782,487.408 
	0,503.378 0,531.113 10.039,546.695 84.278,498.863 245.131,528.676 206.117,572.48 216.449,581.78 241.249,555.948 243.317,566.28 
	254.682,565.248 253.649,545.614 265.346,532.427 "/>
<path fill="#CC0A44" d="M768,753.291v-49.783l-11.011-7.095L768,696.092v-41.869l-13.921,0.407L768,645.589v-50.106L680.806,652H0
	v181.408l393.411-93.261l23.6-2.891l37.743,12.707l3.1,12.916l7.234,0.516l2.584-10.85l29.966,10.85l9.816-8.782
	c0,0-28.328-12.089-51.823-22.087l235.394-28.831L768,753.291z"/>
<polygon fill="#2B1A45" points="768,895.756 561.38,868.5 354.02,844.5 0,828.493 0,1024 768,1024 "/>
<polygon fill="#37346B" points="768,924.556 561.38,897.3 354.02,873.3 0,857.294 0,1024 768,1024 "/>
</svg>
