<?xml version="1.0" encoding="utf-8"?>
<!-- Generator: Adobe Illustrator 16.0.0, SVG Export Plug-In . SVG Version: 6.00 Build 0)  -->
<!DOCTYPE svg PUBLIC "-//W3C//DTD SVG 1.0//EN" "http://www.w3.org/TR/2001/REC-SVG-20010904/DTD/svg10.dtd">
<svg version="1.0" id="Layer_1" xmlns="http://www.w3.org/2000/svg" xmlns:xlink="http://www.w3.org/1999/xlink" x="0px" y="0px"
	 width="70px" height="280px" viewBox="0 0 70 280" enable-background="new 0 0 70 280" xml:space="preserve">
<g>
	<path fill="#14141E" d="M70,245c0,19.33-15.67,35-35,35l0,0c-19.33,0-35-15.67-35-35V35C0,15.67,15.67,0,35,0l0,0
		c19.33,0,35,15.67,35,35V245z"/>
	<circle fill="#FF7F00" cx="24.5" cy="35" r="7"/>
	<circle fill="#FF7F00" cx="45.5" cy="35" r="7"/>
	<circle fill="#1D1D1B" cx="26.6" cy="35" r="2.1"/>
	<circle fill="#1D1D1B" cx="43.4" cy="35" r="2.1"/>
	<polygon fill="#32323C" points="70,211 70,97.3 63,90.3 56,97.3 49,90.3 42,97.3 35,90.3 28,97.3 21,90.3 14,97.3 7,90.3 0,97.3 
		0,211 	"/>
	<circle fill="#50505A" cx="35" cy="54.6" r="10.5"/>
	<polyline fill="#50505A" points="24.5,54.6 35,82.6 45.5,54.6 	"/>
	<circle fill="#C8C8D2" cx="32.2" cy="46.9" r="5.25"/>
	<circle fill="#C8C8D2" cx="37.8" cy="46.9" r="5.25"/>
</g>
</svg>
