<?xml version="1.0" encoding="utf-8"?>
<!-- Generator: Adobe Illustrator 15.0.2, SVG Export Plug-In . SVG Version: 6.00 Build 0)  -->
<!DOCTYPE svg PUBLIC "-//W3C//DTD SVG 1.1//EN" "http://www.w3.org/Graphics/SVG/1.1/DTD/svg11.dtd">
<svg version="1.1" id="Layer_1" xmlns="http://www.w3.org/2000/svg" xmlns:xlink="http://www.w3.org/1999/xlink" x="0px" y="0px"
	 width="768px" height="248.032px" viewBox="0 0 768 248.032" enable-background="new 0 0 768 248.032" xml:space="preserve">
<polygon fill="#B31E57" points="768,248.032 768,65.443 715.822,65.443 683.516,11.866 651.04,16.617 673.894,44.227 
	663.395,45.127 663.131,56.546 682.754,57.595 689.922,65.443 100.965,65.443 0,0 0,50.034 27.692,68.034 0,67.23 0,109.125 
	24.782,109.851 0,125.821 0,153.556 10.039,169.138 84.278,121.306 245.131,151.119 206.117,194.923 216.449,204.223 
	241.249,178.391 243.317,188.723 254.682,187.691 253.649,168.057 265.346,154.87 "/>
</svg>
