<?xml version="1.0" encoding="utf-8"?>
<!-- Generator: Adobe Illustrator 15.0.2, SVG Export Plug-In . SVG Version: 6.00 Build 0)  -->
<!DOCTYPE svg PUBLIC "-//W3C//DTD SVG 1.1//EN" "http://www.w3.org/Graphics/SVG/1.1/DTD/svg11.dtd">
<svg version="1.1" id="Layer_1" xmlns="http://www.w3.org/2000/svg" xmlns:xlink="http://www.w3.org/1999/xlink" x="0px" y="0px"
	 width="768px" height="235.799px" viewBox="0 0 768 235.799" enable-background="new 0 0 768 235.799" xml:space="preserve">
<polygon fill="#CC2029" points="768,106.527 757.988,100.076 768,99.784 768,57.915 755.079,58.293 768,49.901 768,0 
	682.289,55.663 261.641,55.663 284.222,47.452 282.672,37.377 264.847,39.702 271.047,26.526 275.696,17.226 264.071,16.452 
	227.972,55.663 0,55.663 0,235.799 366.513,141.226 471,148.056 471,169.127 481.073,169.901 485.723,163.702 502.771,174.552 
	506.646,162.151 495.222,149.64 601.266,156.57 682.459,101.196 768,156.312 "/>
</svg>
