<?xml version="1.0" encoding="utf-8"?>
<!-- Generator: Adobe Illustrator 16.0.0, SVG Export Plug-In . SVG Version: 6.00 Build 0)  -->
<!DOCTYPE svg PUBLIC "-//W3C//DTD SVG 1.1//EN" "http://www.w3.org/Graphics/SVG/1.1/DTD/svg11.dtd">
<svg version="1.1" id="Layer_1" xmlns="http://www.w3.org/2000/svg" xmlns:xlink="http://www.w3.org/1999/xlink" x="0px" y="0px"
	 width="260px" height="280px" viewBox="0 0 260 280" enable-background="new 0 0 260 280" xml:space="preserve">
<g>
	<polygon fill="#FFFFFF" points="128.958,23.334 142.409,67.165 188.648,0 167.991,75.436 204.76,47.844 189.752,91.171 
		233.288,76.234 205.562,112.827 251.604,112.01 213.874,138.283 257.917,151.667 213.874,165.052 251.604,191.325 205.562,190.507 
		260,247.988 189.752,212.164 204.76,255.49 167.991,227.898 168.811,273.719 142.409,236.17 128.958,280 115.509,236.17 
		89.107,273.719 89.927,227.898 53.158,255.49 68.166,212.164 2.745,248.646 52.355,190.507 6.313,191.325 44.044,165.052 
		0,151.667 44.044,138.283 6.313,112.01 52.355,112.827 24.629,76.234 68.166,91.171 53.158,47.844 89.927,75.436 89.107,29.615 
		115.509,67.165 	"/>
	<polygon fill="#B7E5DC" points="131.704,64.373 140.396,92.694 168.077,44.959 156.925,98.039 180.684,80.209 170.984,108.206 
		199.117,98.554 181.2,122.199 210.951,121.67 186.57,138.647 215.031,147.295 186.57,155.943 210.951,172.919 181.2,172.391 
		213.213,210.311 170.984,186.385 180.684,214.381 156.925,196.552 157.454,226.159 140.396,201.896 131.704,230.218 
		123.014,201.896 105.955,226.159 106.483,196.552 82.726,214.381 92.422,186.385 48.046,211.297 82.208,172.391 52.456,172.919 
		76.837,155.943 48.378,147.295 76.837,138.647 52.456,121.67 82.208,122.199 64.292,98.554 92.422,108.206 82.726,80.209 
		106.483,98.039 105.955,68.431 123.014,92.694 	"/>
</g>
</svg>
